# xmcd
# 
# Track frame offsets:
#     150
#     15337
#     37836
#     53374
#     66765
#     87258
#     99077
#     110481
#     125531
#     144206
#     160506
#     176242
#     194607
#     208182
# 
# Disc length: 3007
# 
# Revision: 0
# Processed by: cddbd v1.5.2PL0 Copyright (c) Steve Scherf et al.
# Submitted via: fre:ac v1.0.17
# 
DISCID=ad0bbd0e
DTITLE=Eric Clapton - Me And Mr Johnson
DYEAR=2004
DGENRE=Blues
TTITLE0=első szám
TTITLE1=Little Queen Of Spades
TTITLE2=They're Red Hot
TTITLE3=Me And The Devil Blues
TTITLE4=Traveling Riverside Blues
TTITLE5=Last Fair Deal Gone Down
TTITLE6=Stop Breakin Down Blues
TTITLE7=Milkcow's Calf Blues
TTITLE8=Kind Hearted Woman Blues
TTITLE9=Come On In My Kitchen
TTITLE10=If I Had Possession Over Judgement Day
TTITLE11=Love In Vain
TTITLE12=32-20 Blues
TTITLE13=Hell Hound On My Trail
EXTD=
EXTT0=
EXTT1=
EXTT2=
EXTT3=
EXTT4=
EXTT5=
EXTT6=
EXTT7=
EXTT8=
EXTT9=
EXTT10=
EXTT11=
EXTT12=
EXTT13=
PLAYORDER=
